<svg xmlns="http://www.w3.org/2000/svg" viewBox="0 0 13 13" shape-rendering="crispEdges">
  <!-- termina T mark — 13×13, same grid as every glyph in the set -->
  <style>
    rect { fill: #111111 }
    @media (prefers-color-scheme: dark) { rect { fill: #FBFBFA } }
  </style>
  <rect x="2" y="2" width="1" height="1"/>
  <rect x="4" y="2" width="1" height="1"/>
  <rect x="6" y="2" width="1" height="1"/>
  <rect x="8" y="2" width="1" height="1"/>
  <rect x="10" y="2" width="1" height="1"/>
  <rect x="3" y="3" width="1" height="1"/>
  <rect x="5" y="3" width="1" height="1"/>
  <rect x="7" y="3" width="1" height="1"/>
  <rect x="9" y="3" width="1" height="1"/>
  <rect x="2" y="4" width="1" height="1"/>
  <rect x="4" y="4" width="1" height="1"/>
  <rect x="6" y="4" width="1" height="1"/>
  <rect x="8" y="4" width="1" height="1"/>
  <rect x="10" y="4" width="1" height="1"/>
  <rect x="5" y="5" width="1" height="1"/>
  <rect x="7" y="5" width="1" height="1"/>
  <rect x="6" y="6" width="1" height="1"/>
  <rect x="5" y="7" width="1" height="1"/>
  <rect x="7" y="7" width="1" height="1"/>
  <rect x="6" y="8" width="1" height="1"/>
  <rect x="5" y="9" width="1" height="1"/>
  <rect x="7" y="9" width="1" height="1"/>
  <rect x="6" y="10" width="1" height="1"/>
  <rect x="5" y="11" width="1" height="1"/>
  <rect x="7" y="11" width="1" height="1"/>
</svg>
