<!-- termina · 404 · v1 -->
<svg xmlns="http://www.w3.org/2000/svg" viewBox="0 0 13 13" width="13" height="13" shape-rendering="crispEdges" fill="currentColor">
  <rect x="1" y="1" width="1" height="1"/>
  <rect x="3" y="1" width="1" height="1"/>
  <rect x="5" y="1" width="3" height="1"/>
  <rect x="9" y="1" width="1" height="1"/>
  <rect x="11" y="1" width="1" height="1"/>
  <rect x="1" y="2" width="1" height="1"/>
  <rect x="3" y="2" width="1" height="1"/>
  <rect x="5" y="2" width="1" height="1"/>
  <rect x="7" y="2" width="1" height="1"/>
  <rect x="9" y="2" width="1" height="1"/>
  <rect x="11" y="2" width="1" height="1"/>
  <rect x="1" y="3" width="1" height="1"/>
  <rect x="3" y="3" width="1" height="1"/>
  <rect x="5" y="3" width="1" height="1"/>
  <rect x="7" y="3" width="1" height="1"/>
  <rect x="9" y="3" width="1" height="1"/>
  <rect x="11" y="3" width="1" height="1"/>
  <rect x="1" y="4" width="1" height="1"/>
  <rect x="3" y="4" width="1" height="1"/>
  <rect x="5" y="4" width="1" height="1"/>
  <rect x="7" y="4" width="1" height="1"/>
  <rect x="9" y="4" width="1" height="1"/>
  <rect x="11" y="4" width="1" height="1"/>
  <rect x="1" y="5" width="1" height="1"/>
  <rect x="3" y="5" width="1" height="1"/>
  <rect x="5" y="5" width="1" height="1"/>
  <rect x="7" y="5" width="1" height="1"/>
  <rect x="9" y="5" width="1" height="1"/>
  <rect x="11" y="5" width="1" height="1"/>
  <rect x="1" y="6" width="1" height="1"/>
  <rect x="3" y="6" width="1" height="1"/>
  <rect x="5" y="6" width="1" height="1"/>
  <rect x="7" y="6" width="1" height="1"/>
  <rect x="9" y="6" width="1" height="1"/>
  <rect x="11" y="6" width="1" height="1"/>
  <rect x="1" y="7" width="1" height="1"/>
  <rect x="3" y="7" width="1" height="1"/>
  <rect x="5" y="7" width="1" height="1"/>
  <rect x="7" y="7" width="1" height="1"/>
  <rect x="9" y="7" width="1" height="1"/>
  <rect x="11" y="7" width="1" height="1"/>
  <rect x="1" y="8" width="3" height="1"/>
  <rect x="5" y="8" width="1" height="1"/>
  <rect x="7" y="8" width="1" height="1"/>
  <rect x="9" y="8" width="3" height="1"/>
  <rect x="3" y="9" width="1" height="1"/>
  <rect x="5" y="9" width="1" height="1"/>
  <rect x="7" y="9" width="1" height="1"/>
  <rect x="11" y="9" width="1" height="1"/>
  <rect x="3" y="10" width="1" height="1"/>
  <rect x="5" y="10" width="1" height="1"/>
  <rect x="7" y="10" width="1" height="1"/>
  <rect x="11" y="10" width="1" height="1"/>
  <rect x="3" y="11" width="1" height="1"/>
  <rect x="5" y="11" width="3" height="1"/>
  <rect x="11" y="11" width="1" height="1"/>
</svg>
