<!-- termina · square-brackets · v1 -->
<svg xmlns="http://www.w3.org/2000/svg" viewBox="0 0 13 13" width="13" height="13" shape-rendering="crispEdges" fill="currentColor">
  <rect x="2" y="2" width="3" height="1"/>
  <rect x="8" y="2" width="3" height="1"/>
  <rect x="2" y="3" width="1" height="1"/>
  <rect x="10" y="3" width="1" height="1"/>
  <rect x="2" y="4" width="1" height="1"/>
  <rect x="10" y="4" width="1" height="1"/>
  <rect x="2" y="5" width="1" height="1"/>
  <rect x="10" y="5" width="1" height="1"/>
  <rect x="2" y="6" width="1" height="1"/>
  <rect x="10" y="6" width="1" height="1"/>
  <rect x="2" y="7" width="1" height="1"/>
  <rect x="10" y="7" width="1" height="1"/>
  <rect x="2" y="8" width="1" height="1"/>
  <rect x="10" y="8" width="1" height="1"/>
  <rect x="2" y="9" width="1" height="1"/>
  <rect x="10" y="9" width="1" height="1"/>
  <rect x="2" y="10" width="3" height="1"/>
  <rect x="8" y="10" width="3" height="1"/>
</svg>
